<mxfile host="app.diagrams.net" modified="2024-05-09T16:50:11.871Z" agent="Mozilla/5.0 (Macintosh; Intel Mac OS X 10_15_7) AppleWebKit/537.36 (KHTML, like Gecko) Chrome/124.0.0.0 Safari/537.36" etag="er3RqXobnG4L1u85HWoi" version="24.3.1" type="github">
  <diagram name="Page-1" id="7e0a89b8-554c-2b80-1dc8-d5c74ca68de4">
    <mxGraphModel dx="414" dy="373" grid="1" gridSize="10" guides="1" tooltips="1" connect="1" arrows="1" fold="1" page="1" pageScale="1" pageWidth="1100" pageHeight="850" background="none" math="0" shadow="0">
      <root>
        <mxCell id="0" />
        <mxCell id="1" parent="0" />
        <mxCell id="J7rhaMlsu3oNgTTagieO-50" value="" style="group" parent="1" vertex="1" connectable="0">
          <mxGeometry x="120" y="360" width="160" height="80" as="geometry" />
        </mxCell>
        <mxCell id="J7rhaMlsu3oNgTTagieO-18" value="" style="rounded=1;whiteSpace=wrap;html=1;container=0;" parent="J7rhaMlsu3oNgTTagieO-50" vertex="1">
          <mxGeometry width="160" height="80" as="geometry" />
        </mxCell>
        <mxCell id="J7rhaMlsu3oNgTTagieO-19" value="" style="ellipse;whiteSpace=wrap;html=1;aspect=fixed;container=0;" parent="J7rhaMlsu3oNgTTagieO-50" vertex="1">
          <mxGeometry x="20" y="20" width="40" height="40" as="geometry" />
        </mxCell>
        <mxCell id="J7rhaMlsu3oNgTTagieO-20" value="" style="ellipse;whiteSpace=wrap;html=1;aspect=fixed;dashed=1;fillColor=none;strokeWidth=1;perimeterSpacing=0;container=0;" parent="J7rhaMlsu3oNgTTagieO-50" vertex="1">
          <mxGeometry x="19" y="19" width="42" height="42" as="geometry" />
        </mxCell>
        <mxCell id="J7rhaMlsu3oNgTTagieO-21" value="" style="ellipse;whiteSpace=wrap;html=1;aspect=fixed;container=0;" parent="J7rhaMlsu3oNgTTagieO-50" vertex="1">
          <mxGeometry x="86" y="30" width="20" height="20" as="geometry" />
        </mxCell>
        <mxCell id="J7rhaMlsu3oNgTTagieO-22" value="" style="ellipse;whiteSpace=wrap;html=1;aspect=fixed;container=0;" parent="J7rhaMlsu3oNgTTagieO-50" vertex="1">
          <mxGeometry x="120" y="30" width="20" height="20" as="geometry" />
        </mxCell>
        <mxCell id="J7rhaMlsu3oNgTTagieO-23" value="" style="ellipse;whiteSpace=wrap;html=1;fillColor=none;container=0;" parent="J7rhaMlsu3oNgTTagieO-50" vertex="1">
          <mxGeometry x="88" y="30" width="16" height="14" as="geometry" />
        </mxCell>
        <mxCell id="J7rhaMlsu3oNgTTagieO-24" value="" style="ellipse;whiteSpace=wrap;html=1;fillColor=none;container=0;" parent="J7rhaMlsu3oNgTTagieO-50" vertex="1">
          <mxGeometry x="122" y="30" width="16" height="14" as="geometry" />
        </mxCell>
        <mxCell id="J7rhaMlsu3oNgTTagieO-51" value="" style="group" parent="1" vertex="1" connectable="0">
          <mxGeometry x="320" y="240" width="80" height="80" as="geometry" />
        </mxCell>
        <mxCell id="J7rhaMlsu3oNgTTagieO-52" value="" style="rounded=1;whiteSpace=wrap;html=1;container=0;" parent="J7rhaMlsu3oNgTTagieO-51" vertex="1">
          <mxGeometry width="80" height="80" as="geometry" />
        </mxCell>
        <mxCell id="J7rhaMlsu3oNgTTagieO-59" value="" style="ellipse;whiteSpace=wrap;html=1;aspect=fixed;dashed=1;fillColor=none;strokeWidth=1;perimeterSpacing=0;container=0;" parent="J7rhaMlsu3oNgTTagieO-51" vertex="1">
          <mxGeometry x="19" y="19" width="42" height="42" as="geometry" />
        </mxCell>
        <mxCell id="J7rhaMlsu3oNgTTagieO-60" value="" style="ellipse;whiteSpace=wrap;html=1;aspect=fixed;fillColor=none;strokeWidth=1;perimeterSpacing=0;container=0;" parent="J7rhaMlsu3oNgTTagieO-51" vertex="1">
          <mxGeometry x="20" y="20" width="40" height="40" as="geometry" />
        </mxCell>
        <mxCell id="S-ZFK1p-VfUkI2Vh22Ew-15" value="" style="endArrow=none;html=1;rounded=0;fontFamily=Helvetica;fontSize=12;fontColor=default;resizable=0;entryX=0.25;entryY=0;entryDx=0;entryDy=0;exitX=0.25;exitY=0.125;exitDx=0;exitDy=0;exitPerimeter=0;fillColor=#f8cecc;strokeColor=#b85450;" edge="1" parent="J7rhaMlsu3oNgTTagieO-51" source="J7rhaMlsu3oNgTTagieO-52" target="J7rhaMlsu3oNgTTagieO-52">
          <mxGeometry width="50" height="50" relative="1" as="geometry">
            <mxPoint x="40" y="20" as="sourcePoint" />
            <mxPoint x="90" y="-30" as="targetPoint" />
          </mxGeometry>
        </mxCell>
        <mxCell id="S-ZFK1p-VfUkI2Vh22Ew-16" value="" style="endArrow=none;html=1;rounded=0;fontFamily=Helvetica;fontSize=12;fontColor=default;resizable=0;entryX=0.25;entryY=0;entryDx=0;entryDy=0;exitX=0.25;exitY=0.125;exitDx=0;exitDy=0;exitPerimeter=0;fillColor=#f5f5f5;strokeColor=#666666;" edge="1" parent="J7rhaMlsu3oNgTTagieO-51">
          <mxGeometry width="50" height="50" relative="1" as="geometry">
            <mxPoint x="39.920000000000016" y="10" as="sourcePoint" />
            <mxPoint x="39.920000000000016" as="targetPoint" />
          </mxGeometry>
        </mxCell>
        <mxCell id="S-ZFK1p-VfUkI2Vh22Ew-17" value="" style="endArrow=none;html=1;rounded=0;fontFamily=Helvetica;fontSize=12;fontColor=default;resizable=0;entryX=0.25;entryY=0;entryDx=0;entryDy=0;exitX=0.25;exitY=0.125;exitDx=0;exitDy=0;exitPerimeter=0;" edge="1" parent="J7rhaMlsu3oNgTTagieO-51">
          <mxGeometry width="50" height="50" relative="1" as="geometry">
            <mxPoint x="60" y="10" as="sourcePoint" />
            <mxPoint x="60" as="targetPoint" />
          </mxGeometry>
        </mxCell>
        <mxCell id="S-ZFK1p-VfUkI2Vh22Ew-3" value="" style="group" vertex="1" connectable="0" parent="1">
          <mxGeometry x="520" y="280" width="251" height="20" as="geometry" />
        </mxCell>
        <mxCell id="J7rhaMlsu3oNgTTagieO-73" value="" style="rounded=0;whiteSpace=wrap;html=1;points=[[0,0.2,0,0,0],[0,0.35,0,0,0],[0,0.5,0,0,0],[0,0.65,0,0,0],[0,0.8,0,0,0],[0.75,0,0,0,0],[0.75,1,0,0,0],[1,0,0,0,0],[1,0.25,0,0,0],[1,0.5,0,0,0],[1,0.75,0,0,0],[1,1,0,0,0]];" parent="S-ZFK1p-VfUkI2Vh22Ew-3" vertex="1">
          <mxGeometry x="1" width="250" height="20" as="geometry" />
        </mxCell>
        <mxCell id="J7rhaMlsu3oNgTTagieO-77" value="" style="rounded=0;whiteSpace=wrap;html=1;strokeColor=default;align=center;verticalAlign=middle;fontFamily=Helvetica;fontSize=12;fontColor=default;fillColor=default;" parent="S-ZFK1p-VfUkI2Vh22Ew-3" vertex="1">
          <mxGeometry x="231" y="3" width="14" height="14" as="geometry" />
        </mxCell>
        <mxCell id="J7rhaMlsu3oNgTTagieO-79" value="" style="rounded=0;whiteSpace=wrap;html=1;strokeColor=default;align=center;verticalAlign=middle;fontFamily=Helvetica;fontSize=12;fontColor=default;fillColor=default;" parent="S-ZFK1p-VfUkI2Vh22Ew-3" vertex="1">
          <mxGeometry x="201" y="3" width="14" height="14" as="geometry" />
        </mxCell>
        <mxCell id="J7rhaMlsu3oNgTTagieO-80" value="" style="rounded=0;whiteSpace=wrap;html=1;strokeColor=default;align=center;verticalAlign=middle;fontFamily=Helvetica;fontSize=12;fontColor=default;fillColor=default;" parent="S-ZFK1p-VfUkI2Vh22Ew-3" vertex="1">
          <mxGeometry x="171" y="3" width="14" height="14" as="geometry" />
        </mxCell>
        <mxCell id="J7rhaMlsu3oNgTTagieO-81" value="" style="rounded=0;whiteSpace=wrap;html=1;strokeColor=default;align=center;verticalAlign=middle;fontFamily=Helvetica;fontSize=12;fontColor=default;fillColor=default;" parent="S-ZFK1p-VfUkI2Vh22Ew-3" vertex="1">
          <mxGeometry x="141" y="3" width="14" height="14" as="geometry" />
        </mxCell>
        <mxCell id="J7rhaMlsu3oNgTTagieO-82" value="" style="rounded=0;whiteSpace=wrap;html=1;strokeColor=default;align=center;verticalAlign=middle;fontFamily=Helvetica;fontSize=12;fontColor=default;fillColor=default;" parent="S-ZFK1p-VfUkI2Vh22Ew-3" vertex="1">
          <mxGeometry x="111" y="3" width="14" height="14" as="geometry" />
        </mxCell>
        <mxCell id="J7rhaMlsu3oNgTTagieO-83" value="" style="rounded=0;whiteSpace=wrap;html=1;strokeColor=default;align=center;verticalAlign=middle;fontFamily=Helvetica;fontSize=12;fontColor=default;fillColor=default;" parent="S-ZFK1p-VfUkI2Vh22Ew-3" vertex="1">
          <mxGeometry x="81" y="3" width="14" height="14" as="geometry" />
        </mxCell>
        <mxCell id="J7rhaMlsu3oNgTTagieO-84" value="" style="rounded=0;whiteSpace=wrap;html=1;strokeColor=default;align=center;verticalAlign=middle;fontFamily=Helvetica;fontSize=12;fontColor=default;fillColor=default;" parent="S-ZFK1p-VfUkI2Vh22Ew-3" vertex="1">
          <mxGeometry x="51" y="3" width="14" height="14" as="geometry" />
        </mxCell>
        <mxCell id="J7rhaMlsu3oNgTTagieO-85" value="" style="rounded=0;whiteSpace=wrap;html=1;strokeColor=default;align=center;verticalAlign=middle;fontFamily=Helvetica;fontSize=12;fontColor=default;fillColor=default;" parent="S-ZFK1p-VfUkI2Vh22Ew-3" vertex="1">
          <mxGeometry x="21" y="3" width="14" height="14" as="geometry" />
        </mxCell>
        <mxCell id="J7rhaMlsu3oNgTTagieO-86" value="" style="endArrow=none;html=1;rounded=0;fontFamily=Helvetica;fontSize=12;fontColor=default;resizable=0;fillColor=#f5f5f5;strokeColor=#000000;" parent="S-ZFK1p-VfUkI2Vh22Ew-3" edge="1">
          <mxGeometry width="50" height="50" relative="1" as="geometry">
            <mxPoint x="11" y="4" as="sourcePoint" />
            <mxPoint y="4" as="targetPoint" />
          </mxGeometry>
        </mxCell>
        <mxCell id="J7rhaMlsu3oNgTTagieO-88" value="" style="endArrow=none;html=1;rounded=0;fontFamily=Helvetica;fontSize=12;fontColor=default;resizable=0;fillColor=#d5e8d4;strokeColor=#82b366;" parent="S-ZFK1p-VfUkI2Vh22Ew-3" edge="1">
          <mxGeometry width="50" height="50" relative="1" as="geometry">
            <mxPoint x="11" y="10" as="sourcePoint" />
            <mxPoint y="10" as="targetPoint" />
          </mxGeometry>
        </mxCell>
        <mxCell id="J7rhaMlsu3oNgTTagieO-89" value="" style="endArrow=none;html=1;rounded=0;fontFamily=Helvetica;fontSize=12;fontColor=default;resizable=0;fillColor=#f5f5f5;strokeColor=#666666;" parent="S-ZFK1p-VfUkI2Vh22Ew-3" edge="1">
          <mxGeometry width="50" height="50" relative="1" as="geometry">
            <mxPoint x="11" y="16" as="sourcePoint" />
            <mxPoint y="16" as="targetPoint" />
          </mxGeometry>
        </mxCell>
        <mxCell id="J7rhaMlsu3oNgTTagieO-90" value="" style="endArrow=none;html=1;rounded=0;fontFamily=Helvetica;fontSize=12;fontColor=default;resizable=0;fillColor=#dae8fc;strokeColor=#6c8ebf;" parent="S-ZFK1p-VfUkI2Vh22Ew-3" edge="1">
          <mxGeometry width="50" height="50" relative="1" as="geometry">
            <mxPoint x="11" y="13" as="sourcePoint" />
            <mxPoint y="13" as="targetPoint" />
          </mxGeometry>
        </mxCell>
        <mxCell id="J7rhaMlsu3oNgTTagieO-91" value="" style="endArrow=none;html=1;rounded=0;fontFamily=Helvetica;fontSize=12;fontColor=default;resizable=0;fillColor=#f8cecc;strokeColor=#b85450;" parent="S-ZFK1p-VfUkI2Vh22Ew-3" edge="1">
          <mxGeometry width="50" height="50" relative="1" as="geometry">
            <mxPoint x="11" y="7" as="sourcePoint" />
            <mxPoint y="7" as="targetPoint" />
          </mxGeometry>
        </mxCell>
        <mxCell id="S-ZFK1p-VfUkI2Vh22Ew-38" value="" style="group" vertex="1" connectable="0" parent="1">
          <mxGeometry x="440" y="260" width="40" height="40" as="geometry" />
        </mxCell>
        <mxCell id="J7rhaMlsu3oNgTTagieO-64" value="" style="rounded=1;whiteSpace=wrap;html=1;container=0;" parent="S-ZFK1p-VfUkI2Vh22Ew-38" vertex="1">
          <mxGeometry width="40" height="40" as="geometry" />
        </mxCell>
        <mxCell id="J7rhaMlsu3oNgTTagieO-61" value="" style="ellipse;whiteSpace=wrap;html=1;aspect=fixed;container=0;" parent="S-ZFK1p-VfUkI2Vh22Ew-38" vertex="1">
          <mxGeometry x="10" y="10" width="20" height="20" as="geometry" />
        </mxCell>
        <mxCell id="J7rhaMlsu3oNgTTagieO-62" value="" style="ellipse;whiteSpace=wrap;html=1;fillColor=none;container=0;" parent="S-ZFK1p-VfUkI2Vh22Ew-38" vertex="1">
          <mxGeometry x="12" y="10" width="16" height="14" as="geometry" />
        </mxCell>
        <mxCell id="S-ZFK1p-VfUkI2Vh22Ew-19" value="" style="endArrow=none;html=1;rounded=0;fontFamily=Helvetica;fontSize=12;fontColor=default;resizable=0;entryX=0.25;entryY=0;entryDx=0;entryDy=0;exitX=0.75;exitY=0.75;exitDx=0;exitDy=0;exitPerimeter=0;fillColor=#f8cecc;strokeColor=#b85450;" edge="1" parent="S-ZFK1p-VfUkI2Vh22Ew-38">
          <mxGeometry width="50" height="50" relative="1" as="geometry">
            <mxPoint x="35" y="10" as="sourcePoint" />
            <mxPoint x="40" y="10" as="targetPoint" />
          </mxGeometry>
        </mxCell>
        <mxCell id="S-ZFK1p-VfUkI2Vh22Ew-21" value="" style="endArrow=none;html=1;rounded=0;fontFamily=Helvetica;fontSize=12;fontColor=default;resizable=0;entryX=0.25;entryY=0;entryDx=0;entryDy=0;exitX=0.75;exitY=0.75;exitDx=0;exitDy=0;exitPerimeter=0;fillColor=#f8cecc;strokeColor=#b85450;" edge="1" parent="S-ZFK1p-VfUkI2Vh22Ew-38">
          <mxGeometry width="50" height="50" relative="1" as="geometry">
            <mxPoint x="35" y="30" as="sourcePoint" />
            <mxPoint x="40" y="30" as="targetPoint" />
          </mxGeometry>
        </mxCell>
        <mxCell id="S-ZFK1p-VfUkI2Vh22Ew-22" value="" style="endArrow=none;html=1;rounded=0;fontFamily=Helvetica;fontSize=12;fontColor=default;resizable=0;entryX=0.25;entryY=0;entryDx=0;entryDy=0;exitX=0.75;exitY=0.75;exitDx=0;exitDy=0;exitPerimeter=0;fillColor=#f8cecc;strokeColor=#b85450;" edge="1" parent="S-ZFK1p-VfUkI2Vh22Ew-38">
          <mxGeometry width="50" height="50" relative="1" as="geometry">
            <mxPoint y="19.960000000000008" as="sourcePoint" />
            <mxPoint x="5" y="19.960000000000008" as="targetPoint" />
          </mxGeometry>
        </mxCell>
        <mxCell id="S-ZFK1p-VfUkI2Vh22Ew-7" value="" style="curved=0;endArrow=none;html=1;rounded=1;fontFamily=Helvetica;fontSize=12;fontColor=default;resizable=0;endFill=0;entryX=0;entryY=0.35;entryDx=0;entryDy=0;entryPerimeter=0;exitX=1;exitY=0.25;exitDx=0;exitDy=0;fillColor=#f8cecc;strokeColor=#b85450;" edge="1" parent="1" source="J7rhaMlsu3oNgTTagieO-64" target="J7rhaMlsu3oNgTTagieO-73">
          <mxGeometry width="50" height="50" relative="1" as="geometry">
            <mxPoint x="460" y="220" as="sourcePoint" />
            <mxPoint x="510" y="170" as="targetPoint" />
            <Array as="points" />
          </mxGeometry>
        </mxCell>
        <mxCell id="S-ZFK1p-VfUkI2Vh22Ew-9" value="" style="curved=1;endArrow=none;html=1;rounded=0;fontFamily=Helvetica;fontSize=12;fontColor=default;resizable=0;endFill=0;entryX=0;entryY=0.8;entryDx=0;entryDy=0;entryPerimeter=0;exitX=1;exitY=0.75;exitDx=0;exitDy=0;fillColor=#f8cecc;strokeColor=#b85450;" edge="1" parent="1" source="J7rhaMlsu3oNgTTagieO-64" target="J7rhaMlsu3oNgTTagieO-73">
          <mxGeometry width="50" height="50" relative="1" as="geometry">
            <mxPoint x="490" y="190" as="sourcePoint" />
            <mxPoint x="551" y="194" as="targetPoint" />
            <Array as="points" />
          </mxGeometry>
        </mxCell>
        <mxCell id="S-ZFK1p-VfUkI2Vh22Ew-23" style="edgeStyle=orthogonalEdgeStyle;rounded=0;orthogonalLoop=1;jettySize=auto;html=1;exitX=0.75;exitY=0;exitDx=0;exitDy=0;entryX=0;entryY=0.5;entryDx=0;entryDy=0;fontFamily=Helvetica;fontSize=12;fontColor=default;resizable=0;curved=1;endArrow=none;endFill=0;" edge="1" parent="1" source="J7rhaMlsu3oNgTTagieO-52" target="J7rhaMlsu3oNgTTagieO-64">
          <mxGeometry relative="1" as="geometry" />
        </mxCell>
        <mxCell id="S-ZFK1p-VfUkI2Vh22Ew-35" value="" style="endArrow=none;html=1;rounded=0;fontFamily=Helvetica;fontSize=12;fontColor=default;resizable=0;entryX=0.25;entryY=0;entryDx=0;entryDy=0;curved=1;fillColor=#f8cecc;strokeColor=#b85450;exitX=0.75;exitY=0;exitDx=0;exitDy=0;" edge="1" parent="1" source="S-ZFK1p-VfUkI2Vh22Ew-73" target="J7rhaMlsu3oNgTTagieO-52">
          <mxGeometry width="50" height="50" relative="1" as="geometry">
            <mxPoint x="250" y="210" as="sourcePoint" />
            <mxPoint x="310" y="200" as="targetPoint" />
            <Array as="points">
              <mxPoint x="310" y="190" />
            </Array>
          </mxGeometry>
        </mxCell>
        <mxCell id="S-ZFK1p-VfUkI2Vh22Ew-40" value="" style="endArrow=none;html=1;rounded=0;fontFamily=Helvetica;fontSize=12;fontColor=default;resizable=0;exitX=0.5;exitY=0;exitDx=0;exitDy=0;fillColor=#f5f5f5;strokeColor=#666666;entryX=0.5;entryY=1;entryDx=0;entryDy=0;" edge="1" parent="1" source="J7rhaMlsu3oNgTTagieO-52" target="S-ZFK1p-VfUkI2Vh22Ew-42">
          <mxGeometry width="50" height="50" relative="1" as="geometry">
            <mxPoint x="369.92" y="210" as="sourcePoint" />
            <mxPoint x="370" y="180" as="targetPoint" />
          </mxGeometry>
        </mxCell>
        <mxCell id="S-ZFK1p-VfUkI2Vh22Ew-42" value="" style="ellipse;whiteSpace=wrap;html=1;aspect=fixed;rounded=0;strokeColor=default;align=center;verticalAlign=middle;fontFamily=Helvetica;fontSize=12;fontColor=default;fillColor=#000000;" vertex="1" parent="1">
          <mxGeometry x="357.5" y="180" width="5" height="5" as="geometry" />
        </mxCell>
        <mxCell id="S-ZFK1p-VfUkI2Vh22Ew-43" value="" style="endArrow=none;html=1;rounded=0;fontFamily=Helvetica;fontSize=12;fontColor=default;resizable=0;entryX=0;entryY=0.2;entryDx=0;entryDy=0;entryPerimeter=0;exitX=1;exitY=0.5;exitDx=0;exitDy=0;curved=1;" edge="1" parent="1" source="S-ZFK1p-VfUkI2Vh22Ew-42" target="S-ZFK1p-VfUkI2Vh22Ew-51">
          <mxGeometry width="50" height="50" relative="1" as="geometry">
            <mxPoint x="420" y="170" as="sourcePoint" />
            <mxPoint x="530" y="180" as="targetPoint" />
          </mxGeometry>
        </mxCell>
        <mxCell id="S-ZFK1p-VfUkI2Vh22Ew-44" value="" style="endArrow=none;html=1;rounded=0;fontFamily=Helvetica;fontSize=12;fontColor=default;resizable=0;entryX=0;entryY=0.5;entryDx=0;entryDy=0;curved=1;exitX=0.25;exitY=0;exitDx=0;exitDy=0;" edge="1" parent="1" source="S-ZFK1p-VfUkI2Vh22Ew-73" target="S-ZFK1p-VfUkI2Vh22Ew-42">
          <mxGeometry width="50" height="50" relative="1" as="geometry">
            <mxPoint x="180" y="170" as="sourcePoint" />
            <mxPoint x="436" y="119" as="targetPoint" />
          </mxGeometry>
        </mxCell>
        <mxCell id="S-ZFK1p-VfUkI2Vh22Ew-50" value="" style="group" vertex="1" connectable="0" parent="1">
          <mxGeometry x="520" y="240" width="251" height="20" as="geometry" />
        </mxCell>
        <mxCell id="S-ZFK1p-VfUkI2Vh22Ew-51" value="" style="rounded=0;whiteSpace=wrap;html=1;points=[[0,0.2,0,0,0],[0,0.35,0,0,0],[0,0.5,0,0,0],[0,0.65,0,0,0],[0,0.8,0,0,0],[0.75,0,0,0,0],[0.75,1,0,0,0],[1,0,0,0,0],[1,0.25,0,0,0],[1,0.5,0,0,0],[1,0.75,0,0,0],[1,1,0,0,0]];" vertex="1" parent="S-ZFK1p-VfUkI2Vh22Ew-50">
          <mxGeometry x="1" width="250" height="20" as="geometry" />
        </mxCell>
        <mxCell id="S-ZFK1p-VfUkI2Vh22Ew-52" value="" style="rounded=0;whiteSpace=wrap;html=1;strokeColor=default;align=center;verticalAlign=middle;fontFamily=Helvetica;fontSize=12;fontColor=default;fillColor=default;" vertex="1" parent="S-ZFK1p-VfUkI2Vh22Ew-50">
          <mxGeometry x="231" y="3" width="14" height="14" as="geometry" />
        </mxCell>
        <mxCell id="S-ZFK1p-VfUkI2Vh22Ew-53" value="" style="rounded=0;whiteSpace=wrap;html=1;strokeColor=default;align=center;verticalAlign=middle;fontFamily=Helvetica;fontSize=12;fontColor=default;fillColor=default;" vertex="1" parent="S-ZFK1p-VfUkI2Vh22Ew-50">
          <mxGeometry x="201" y="3" width="14" height="14" as="geometry" />
        </mxCell>
        <mxCell id="S-ZFK1p-VfUkI2Vh22Ew-54" value="" style="rounded=0;whiteSpace=wrap;html=1;strokeColor=default;align=center;verticalAlign=middle;fontFamily=Helvetica;fontSize=12;fontColor=default;fillColor=default;" vertex="1" parent="S-ZFK1p-VfUkI2Vh22Ew-50">
          <mxGeometry x="171" y="3" width="14" height="14" as="geometry" />
        </mxCell>
        <mxCell id="S-ZFK1p-VfUkI2Vh22Ew-55" value="" style="rounded=0;whiteSpace=wrap;html=1;strokeColor=default;align=center;verticalAlign=middle;fontFamily=Helvetica;fontSize=12;fontColor=default;fillColor=default;" vertex="1" parent="S-ZFK1p-VfUkI2Vh22Ew-50">
          <mxGeometry x="141" y="3" width="14" height="14" as="geometry" />
        </mxCell>
        <mxCell id="S-ZFK1p-VfUkI2Vh22Ew-56" value="" style="rounded=0;whiteSpace=wrap;html=1;strokeColor=default;align=center;verticalAlign=middle;fontFamily=Helvetica;fontSize=12;fontColor=default;fillColor=default;" vertex="1" parent="S-ZFK1p-VfUkI2Vh22Ew-50">
          <mxGeometry x="111" y="3" width="14" height="14" as="geometry" />
        </mxCell>
        <mxCell id="S-ZFK1p-VfUkI2Vh22Ew-57" value="" style="rounded=0;whiteSpace=wrap;html=1;strokeColor=default;align=center;verticalAlign=middle;fontFamily=Helvetica;fontSize=12;fontColor=default;fillColor=default;" vertex="1" parent="S-ZFK1p-VfUkI2Vh22Ew-50">
          <mxGeometry x="81" y="3" width="14" height="14" as="geometry" />
        </mxCell>
        <mxCell id="S-ZFK1p-VfUkI2Vh22Ew-58" value="" style="rounded=0;whiteSpace=wrap;html=1;strokeColor=default;align=center;verticalAlign=middle;fontFamily=Helvetica;fontSize=12;fontColor=default;fillColor=default;" vertex="1" parent="S-ZFK1p-VfUkI2Vh22Ew-50">
          <mxGeometry x="51" y="3" width="14" height="14" as="geometry" />
        </mxCell>
        <mxCell id="S-ZFK1p-VfUkI2Vh22Ew-59" value="" style="rounded=0;whiteSpace=wrap;html=1;strokeColor=default;align=center;verticalAlign=middle;fontFamily=Helvetica;fontSize=12;fontColor=default;fillColor=default;" vertex="1" parent="S-ZFK1p-VfUkI2Vh22Ew-50">
          <mxGeometry x="21" y="3" width="14" height="14" as="geometry" />
        </mxCell>
        <mxCell id="S-ZFK1p-VfUkI2Vh22Ew-60" value="" style="endArrow=none;html=1;rounded=0;fontFamily=Helvetica;fontSize=12;fontColor=default;resizable=0;fillColor=#f5f5f5;strokeColor=#000000;" edge="1" parent="S-ZFK1p-VfUkI2Vh22Ew-50">
          <mxGeometry width="50" height="50" relative="1" as="geometry">
            <mxPoint x="11" y="4" as="sourcePoint" />
            <mxPoint y="4" as="targetPoint" />
          </mxGeometry>
        </mxCell>
        <mxCell id="S-ZFK1p-VfUkI2Vh22Ew-61" value="" style="endArrow=none;html=1;rounded=0;fontFamily=Helvetica;fontSize=12;fontColor=default;resizable=0;fillColor=#d5e8d4;strokeColor=#82b366;" edge="1" parent="S-ZFK1p-VfUkI2Vh22Ew-50">
          <mxGeometry width="50" height="50" relative="1" as="geometry">
            <mxPoint x="11" y="10" as="sourcePoint" />
            <mxPoint y="10" as="targetPoint" />
          </mxGeometry>
        </mxCell>
        <mxCell id="S-ZFK1p-VfUkI2Vh22Ew-62" value="" style="endArrow=none;html=1;rounded=0;fontFamily=Helvetica;fontSize=12;fontColor=default;resizable=0;fillColor=#f5f5f5;strokeColor=#666666;" edge="1" parent="S-ZFK1p-VfUkI2Vh22Ew-50">
          <mxGeometry width="50" height="50" relative="1" as="geometry">
            <mxPoint x="11" y="16" as="sourcePoint" />
            <mxPoint y="16" as="targetPoint" />
          </mxGeometry>
        </mxCell>
        <mxCell id="S-ZFK1p-VfUkI2Vh22Ew-63" value="" style="endArrow=none;html=1;rounded=0;fontFamily=Helvetica;fontSize=12;fontColor=default;resizable=0;fillColor=#dae8fc;strokeColor=#6c8ebf;" edge="1" parent="S-ZFK1p-VfUkI2Vh22Ew-50">
          <mxGeometry width="50" height="50" relative="1" as="geometry">
            <mxPoint x="11" y="13" as="sourcePoint" />
            <mxPoint y="13" as="targetPoint" />
          </mxGeometry>
        </mxCell>
        <mxCell id="S-ZFK1p-VfUkI2Vh22Ew-64" value="" style="endArrow=none;html=1;rounded=0;fontFamily=Helvetica;fontSize=12;fontColor=default;resizable=0;fillColor=#f8cecc;strokeColor=#b85450;" edge="1" parent="S-ZFK1p-VfUkI2Vh22Ew-50">
          <mxGeometry width="50" height="50" relative="1" as="geometry">
            <mxPoint x="11" y="7" as="sourcePoint" />
            <mxPoint y="7" as="targetPoint" />
          </mxGeometry>
        </mxCell>
        <mxCell id="S-ZFK1p-VfUkI2Vh22Ew-65" value="" style="curved=1;endArrow=none;html=1;rounded=0;fontFamily=Helvetica;fontSize=12;fontColor=default;resizable=0;endFill=0;entryX=0;entryY=0.8;entryDx=0;entryDy=0;entryPerimeter=0;exitX=1;exitY=0.75;exitDx=0;exitDy=0;fillColor=#f8cecc;strokeColor=#b85450;" edge="1" parent="1" source="J7rhaMlsu3oNgTTagieO-64" target="S-ZFK1p-VfUkI2Vh22Ew-51">
          <mxGeometry width="50" height="50" relative="1" as="geometry">
            <mxPoint x="490" y="300" as="sourcePoint" />
            <mxPoint x="531" y="316" as="targetPoint" />
            <Array as="points" />
          </mxGeometry>
        </mxCell>
        <mxCell id="S-ZFK1p-VfUkI2Vh22Ew-66" value="" style="curved=0;endArrow=none;html=1;rounded=1;fontFamily=Helvetica;fontSize=12;fontColor=default;resizable=0;endFill=0;entryX=0;entryY=0.35;entryDx=0;entryDy=0;entryPerimeter=0;exitX=1;exitY=0.25;exitDx=0;exitDy=0;fillColor=#f8cecc;strokeColor=#b85450;" edge="1" parent="1" source="J7rhaMlsu3oNgTTagieO-64" target="S-ZFK1p-VfUkI2Vh22Ew-51">
          <mxGeometry width="50" height="50" relative="1" as="geometry">
            <mxPoint x="490" y="280" as="sourcePoint" />
            <mxPoint x="531" y="307" as="targetPoint" />
            <Array as="points" />
          </mxGeometry>
        </mxCell>
        <mxCell id="S-ZFK1p-VfUkI2Vh22Ew-68" value="" style="endArrow=none;html=1;rounded=0;fontFamily=Helvetica;fontSize=12;fontColor=default;resizable=0;entryX=0;entryY=0.2;entryDx=0;entryDy=0;entryPerimeter=0;exitX=0;exitY=0.2;exitDx=0;exitDy=0;exitPerimeter=0;curved=1;" edge="1" parent="1" source="S-ZFK1p-VfUkI2Vh22Ew-51" target="J7rhaMlsu3oNgTTagieO-73">
          <mxGeometry width="50" height="50" relative="1" as="geometry">
            <mxPoint x="450" y="251" as="sourcePoint" />
            <mxPoint x="500" y="201" as="targetPoint" />
            <Array as="points">
              <mxPoint x="500" y="261" />
            </Array>
          </mxGeometry>
        </mxCell>
        <mxCell id="S-ZFK1p-VfUkI2Vh22Ew-76" value="" style="group" vertex="1" connectable="0" parent="1">
          <mxGeometry x="120" y="220" width="160" height="100" as="geometry" />
        </mxCell>
        <mxCell id="S-ZFK1p-VfUkI2Vh22Ew-73" value="" style="rounded=0;whiteSpace=wrap;html=1;strokeColor=none;align=center;verticalAlign=middle;fontFamily=Helvetica;fontSize=12;fontColor=default;fillColor=none;" vertex="1" parent="S-ZFK1p-VfUkI2Vh22Ew-76">
          <mxGeometry width="160" height="100" as="geometry" />
        </mxCell>
        <mxCell id="S-ZFK1p-VfUkI2Vh22Ew-72" value="" style="rounded=0;whiteSpace=wrap;html=1;strokeColor=default;align=center;verticalAlign=middle;fontFamily=Helvetica;fontSize=12;fontColor=default;fillColor=default;" vertex="1" parent="S-ZFK1p-VfUkI2Vh22Ew-76">
          <mxGeometry y="20" width="160" height="80" as="geometry" />
        </mxCell>
        <mxCell id="J7rhaMlsu3oNgTTagieO-70" value="" style="endArrow=none;html=1;rounded=0;strokeWidth=2;" parent="S-ZFK1p-VfUkI2Vh22Ew-76" edge="1">
          <mxGeometry width="50" height="50" relative="1" as="geometry">
            <mxPoint x="5" y="45" as="sourcePoint" />
            <mxPoint x="45" y="45" as="targetPoint" />
          </mxGeometry>
        </mxCell>
        <mxCell id="J7rhaMlsu3oNgTTagieO-71" value="" style="endArrow=none;html=1;rounded=0;strokeWidth=2;" parent="S-ZFK1p-VfUkI2Vh22Ew-76" edge="1">
          <mxGeometry width="50" height="50" relative="1" as="geometry">
            <mxPoint x="135" y="65" as="sourcePoint" />
            <mxPoint x="135" y="25" as="targetPoint" />
          </mxGeometry>
        </mxCell>
        <mxCell id="J7rhaMlsu3oNgTTagieO-72" value="" style="endArrow=none;html=1;rounded=0;strokeWidth=2;" parent="S-ZFK1p-VfUkI2Vh22Ew-76" edge="1">
          <mxGeometry width="50" height="50" relative="1" as="geometry">
            <mxPoint x="115" y="45" as="sourcePoint" />
            <mxPoint x="155" y="45" as="targetPoint" />
          </mxGeometry>
        </mxCell>
        <mxCell id="S-ZFK1p-VfUkI2Vh22Ew-74" value="" style="endArrow=none;html=1;rounded=0;fontFamily=Helvetica;fontSize=12;fontColor=default;resizable=0;exitX=0;exitY=0;exitDx=0;exitDy=0;entryX=0.25;entryY=0;entryDx=0;entryDy=0;" edge="1" parent="S-ZFK1p-VfUkI2Vh22Ew-76" source="S-ZFK1p-VfUkI2Vh22Ew-72" target="S-ZFK1p-VfUkI2Vh22Ew-73">
          <mxGeometry width="50" height="50" relative="1" as="geometry">
            <mxPoint x="100" y="10" as="sourcePoint" />
            <mxPoint x="150" y="-40" as="targetPoint" />
          </mxGeometry>
        </mxCell>
        <mxCell id="S-ZFK1p-VfUkI2Vh22Ew-75" value="" style="endArrow=none;html=1;rounded=0;fontFamily=Helvetica;fontSize=12;fontColor=default;resizable=0;exitX=1;exitY=0;exitDx=0;exitDy=0;entryX=0.75;entryY=0;entryDx=0;entryDy=0;" edge="1" parent="S-ZFK1p-VfUkI2Vh22Ew-76" source="S-ZFK1p-VfUkI2Vh22Ew-72" target="S-ZFK1p-VfUkI2Vh22Ew-73">
          <mxGeometry width="50" height="50" relative="1" as="geometry">
            <mxPoint x="100" y="10" as="sourcePoint" />
            <mxPoint x="150" y="-40" as="targetPoint" />
          </mxGeometry>
        </mxCell>
      </root>
    </mxGraphModel>
  </diagram>
</mxfile>
